<svg xmlns="http://www.w3.org/2000/svg" viewBox="0 0 340.06 352.43"><g id="Layer_2" data-name="Layer 2"><g id="Layer_1-2" data-name="Layer 1"><g id="cerealbox-animation"><polygon points="25.07 39.47 136.29 0 273.05 136.71 161.78 176.18 25.07 39.47"/><polygon points="136.76 237.1 0 100.39 19.76 44.78 156.47 181.49 136.76 237.1"/><polyline points="167.28 181.4 228.99 181.4 340.06 141.98 278.33 141.98 167.26 181.4"/><polyline points="162.07 232.83 162.02 232.99 162.02 186.12 162.02 186.12 162.02 186.12 142.05 242.53 142.05 289.15"/></g><path d="M199.54,234.25q-7.86,0-12-4.16t-4.15-12.86q0-8.46,4-12.82t12.2-4.35a22.27,22.27,0,0,1,5.27.64,28.08,28.08,0,0,1,5.16,1.77v6.93a20.25,20.25,0,0,0-4.92-2.41,14.89,14.89,0,0,0-4.42-.73,10.54,10.54,0,0,0-4.9,1,6.79,6.79,0,0,0-3,3.44,16.4,16.4,0,0,0-1.06,6.5,16,16,0,0,0,1.06,6.44,6.51,6.51,0,0,0,3.15,3.37,11.66,11.66,0,0,0,5.14,1,14.64,14.64,0,0,0,4.13-.69A18.66,18.66,0,0,0,210,225v6.94a18.47,18.47,0,0,1-3.12,1.2,28,28,0,0,1-3.64.82A24.7,24.7,0,0,1,199.54,234.25Z"/><path d="M227.05,234.35a13.77,13.77,0,0,1-6.62-1.55,11,11,0,0,1-4.48-4.43,13.89,13.89,0,0,1-1.6-6.86q0-6.49,3.22-10.06t9.23-3.57a11.44,11.44,0,0,1,6.67,1.77,10.17,10.17,0,0,1,3.71,5.17,24.54,24.54,0,0,1,1.13,8.26H219.37l-.79-4.67h13.68l-1.08,2.31c0-2.66-.41-4.52-1.13-5.61a4,4,0,0,0-3.55-1.62,4.61,4.61,0,0,0-2.48.69,4.43,4.43,0,0,0-1.72,2.29,12.58,12.58,0,0,0-.62,4.4,8,8,0,0,0,1.7,5.46q1.69,1.92,5.44,1.92a12.11,12.11,0,0,0,2.73-.32,21.49,21.49,0,0,0,2.53-.76c.79-.3,1.46-.56,2-.79v6.3a22.53,22.53,0,0,1-4,1.2A24.71,24.71,0,0,1,227.05,234.35Z"/><path d="M243.43,233.61V211.32a10.56,10.56,0,0,1,2.46-1.35,29.52,29.52,0,0,1,4.06-1.38,17.62,17.62,0,0,1,4.6-.61,15.19,15.19,0,0,1,3.64.34,5.48,5.48,0,0,1,2,.89v5.36a13.6,13.6,0,0,0-2.11-.29c-.85-.07-1.74-.11-2.66-.13s-1.79,0-2.6,0a17.12,17.12,0,0,0-2.07.19v19.24Z"/><path d="M274.92,234.35a13.77,13.77,0,0,1-6.62-1.55,11,11,0,0,1-4.48-4.43,14,14,0,0,1-1.6-6.86q0-6.49,3.22-10.06t9.23-3.57a11.42,11.42,0,0,1,6.67,1.77,10.17,10.17,0,0,1,3.71,5.17,24.54,24.54,0,0,1,1.13,8.26H267.24l-.79-4.67h13.68l-1.08,2.31c0-2.66-.41-4.52-1.13-5.61a4,4,0,0,0-3.55-1.62,4.61,4.61,0,0,0-2.48.69,4.43,4.43,0,0,0-1.72,2.29,12.58,12.58,0,0,0-.62,4.4,8,8,0,0,0,1.7,5.46q1.69,1.92,5.44,1.92a12,12,0,0,0,2.73-.32,21.49,21.49,0,0,0,2.53-.76c.79-.3,1.46-.56,2-.79v6.3a22.53,22.53,0,0,1-4,1.2A24.71,24.71,0,0,1,274.92,234.35Z"/><path d="M300.89,234.35a20.56,20.56,0,0,1-4.25-.42,10.42,10.42,0,0,1-3.5-1.38,6.51,6.51,0,0,1-2.33-2.6,9,9,0,0,1-.84-4.11,8.18,8.18,0,0,1,1-4,6.33,6.33,0,0,1,2.93-2.65,11.48,11.48,0,0,1,5-.94,15.1,15.1,0,0,1,3.24.35,13.42,13.42,0,0,1,2.83.93,7.52,7.52,0,0,1,2,1.28l.3,3.54a8.8,8.8,0,0,0-2.36-.93,12.11,12.11,0,0,0-2.95-.35,6.64,6.64,0,0,0-3.52.72,2.46,2.46,0,0,0-1.11,2.24,2.76,2.76,0,0,0,.54,1.67,3.48,3.48,0,0,0,1.45,1.13,4.79,4.79,0,0,0,1.9.39,12.39,12.39,0,0,0,3.52-.34,1.35,1.35,0,0,0,1-1.38v-9.15a3.69,3.69,0,0,0-1.46-3.27,7.13,7.13,0,0,0-4.11-1,13.12,13.12,0,0,0-4.35.76,12.41,12.41,0,0,0-3.57,1.85v-6.5a15.52,15.52,0,0,1,4-1.47,24.26,24.26,0,0,1,6-.69,17.91,17.91,0,0,1,2.61.2,13.51,13.51,0,0,1,2.85.71,8.91,8.91,0,0,1,2.64,1.5,7.29,7.29,0,0,1,1.94,2.51,8.71,8.71,0,0,1,.74,3.79l-.05,11.76a4.39,4.39,0,0,1-1.43,3.41,8.84,8.84,0,0,1-4.11,1.9A30.77,30.77,0,0,1,300.89,234.35Z"/><path d="M326.72,233.61h-7.28V199.32h7.28Z"/><path d="M185,292.65V259.83H199a19.3,19.3,0,0,1,6.23.91,8.34,8.34,0,0,1,4.1,2.91,8.64,8.64,0,0,1,1.48,5.29,5.87,5.87,0,0,1-1.08,3.64,8.37,8.37,0,0,1-2.61,2.28,20.07,20.07,0,0,1-2.85,1.36l-.89-1.72a11.5,11.5,0,0,1,4.75,1.1,7.89,7.89,0,0,1,3.2,2.81,7.76,7.76,0,0,1,1.15,4.3,9.18,9.18,0,0,1-1.64,5.64,9.69,9.69,0,0,1-4.41,3.24,16.8,16.8,0,0,1-6.1,1.06Zm8-19.93h6.4a3.8,3.8,0,0,0,1.57-.32,2.78,2.78,0,0,0,1.21-1,3.21,3.21,0,0,0,.46-1.82,3.16,3.16,0,0,0-1.08-2.78,4.49,4.49,0,0,0-2.66-.77H193Zm0,13.78h6.69a6.53,6.53,0,0,0,2.26-.37,3.38,3.38,0,0,0,1.68-1.28,4.19,4.19,0,0,0,.64-2.43,3.84,3.84,0,0,0-.4-1.87,3,3,0,0,0-1.05-1.16,4.94,4.94,0,0,0-1.51-.61,7.68,7.68,0,0,0-1.77-.2H193Z"/><path d="M229,293.39q-6.3,0-9.47-3.37t-3.17-9.92q0-7,3.22-10.11t9.42-3.07a15.74,15.74,0,0,1,7,1.4,9.27,9.27,0,0,1,4.28,4.31,16.64,16.64,0,0,1,1.46,7.47q0,6.56-3.3,9.92T229,293.39Zm0-5.86a5,5,0,0,0,3-.86,5.22,5.22,0,0,0,1.82-2.51,11.65,11.65,0,0,0,.61-4.06,12.49,12.49,0,0,0-.61-4.35,4.35,4.35,0,0,0-1.84-2.31,5.91,5.91,0,0,0-3-.72,5.72,5.72,0,0,0-3,.74,4.31,4.31,0,0,0-1.74,2.34,13.18,13.18,0,0,0-.57,4.3,9.79,9.79,0,0,0,1.3,5.59A4.64,4.64,0,0,0,229,287.53Z"/><path d="M257.89,282.71l-6.79,9.94h-7.72L254.55,278Zm12.2,9.94h-8.7l-17.76-24.89h8.65Zm-14.36-14.71,7-10.18h7.78l-11.42,14.95Z"/><path d="M185,351.69V318.87h8.12l11.26,15.7-4.33.15,11.66-15.85h7.93v32.82h-8V324.88l1.57,2.55-11.22,14.91-11.12-15.15,1.73-1.18v25.68Z"/><path d="M237.67,352.43a13.73,13.73,0,0,1-6.61-1.55,11,11,0,0,1-4.48-4.43,13.89,13.89,0,0,1-1.6-6.86q0-6.49,3.22-10.06t9.23-3.57a11.4,11.4,0,0,1,6.66,1.77,10.13,10.13,0,0,1,3.72,5.17,24.5,24.5,0,0,1,1.13,8.26H230l-.79-4.67h13.68l-1.08,2.31q-.06-4-1.14-5.61a3.94,3.94,0,0,0-3.54-1.62,4.56,4.56,0,0,0-2.48.69,4.39,4.39,0,0,0-1.72,2.28,12.45,12.45,0,0,0-.62,4.41,8,8,0,0,0,1.7,5.46q1.69,1.92,5.43,1.92a12,12,0,0,0,2.73-.32,21.09,21.09,0,0,0,2.54-.77q1.18-.44,2-.78v6.29a21.84,21.84,0,0,1-3.95,1.21A24.82,24.82,0,0,1,237.67,352.43Z"/><path d="M266,352.43a21.36,21.36,0,0,1-5.34-.64,10.59,10.59,0,0,1-4.2-2.14,9.94,9.94,0,0,1-2.78-4.11,18,18,0,0,1-1-6.5q0-6,3-9.54t8.93-3.49q.8,0,2.07.12a11.4,11.4,0,0,1,2.66.61,6.09,6.09,0,0,1,2.46,1.68l-1.48,2.26V316.56h7.28V345.2a5.28,5.28,0,0,1-1,3.17,7.72,7.72,0,0,1-2.63,2.24,14.61,14.61,0,0,1-3.72,1.35A19.18,19.18,0,0,1,266,352.43Zm.3-6.15a7.53,7.53,0,0,0,2.88-.47,1.52,1.52,0,0,0,1.1-1.4V332.94a8.69,8.69,0,0,0-1.89-.76,7.5,7.5,0,0,0-2-.27,8,8,0,0,0-3.49.69,4.45,4.45,0,0,0-2.14,2.31,11.17,11.17,0,0,0-.71,4.38,10.56,10.56,0,0,0,.59,3.72,4.82,4.82,0,0,0,1.94,2.41A6.8,6.8,0,0,0,266.26,346.28Z"/><path d="M284,323.4v-5.66h7.57v5.66Zm.15,28.29V327.14h7.33l0,24.55Z"/><path d="M307.68,352.43a20.49,20.49,0,0,1-4.25-.42,10.42,10.42,0,0,1-3.5-1.38A6.48,6.48,0,0,1,297.6,348a8.93,8.93,0,0,1-.84-4.1,8.16,8.16,0,0,1,1-4,6.35,6.35,0,0,1,2.93-2.66,11.58,11.58,0,0,1,5-.93,15.12,15.12,0,0,1,3.25.34,13.62,13.62,0,0,1,2.83.94,7.52,7.52,0,0,1,2,1.28l.3,3.54a8.8,8.8,0,0,0-2.36-.93,12.17,12.17,0,0,0-2.95-.35,6.75,6.75,0,0,0-3.52.71,2.48,2.48,0,0,0-1.11,2.24,2.79,2.79,0,0,0,.54,1.68,3.48,3.48,0,0,0,1.45,1.13,4.79,4.79,0,0,0,1.9.39,12.26,12.26,0,0,0,3.51-.34,1.34,1.34,0,0,0,1-1.38v-9.15a3.69,3.69,0,0,0-1.45-3.27,7.15,7.15,0,0,0-4.11-1,13.12,13.12,0,0,0-4.35.76,12.17,12.17,0,0,0-3.57,1.85v-6.5a15.47,15.47,0,0,1,4-1.48,24.76,24.76,0,0,1,6-.68,19.32,19.32,0,0,1,2.61.19,13.54,13.54,0,0,1,2.85.72,8.74,8.74,0,0,1,2.63,1.5A7.11,7.11,0,0,1,319,331a8.66,8.66,0,0,1,.74,3.78l-.05,11.76a4.42,4.42,0,0,1-1.43,3.42,8.84,8.84,0,0,1-4.11,1.9A30.77,30.77,0,0,1,307.68,352.43Z"/></g></g></svg>